<?xml version="1.0" encoding="UTF-8"?>
<!DOCTYPE svg PUBLIC "-//W3C//DTD SVG 1.1//EN" "http://www.w3.org/Graphics/SVG/1.1/DTD/svg11.dtd">
<!-- Creator: CorelDRAW -->
<svg xmlns="http://www.w3.org/2000/svg" xml:space="preserve" width="64px" height="64px" style="shape-rendering:geometricPrecision; text-rendering:geometricPrecision; image-rendering:optimizeQuality; fill-rule:evenodd; clip-rule:evenodd"
viewBox="0 0 640 640"
 xmlns:xlink="http://www.w3.org/1999/xlink">
 <defs>
  <style type="text/css">
   <![CDATA[
    .fil0 {fill:white;fill-rule:nonzero}
   ]]>
  </style>
 </defs>
 <g id="Layer_x0020_1">
  <metadata id="CorelCorpID_0Corel-Layer"/>
  <path class="fil0" d="M320 0c88.3594,0 168.368,35.8115 226.278,93.7216 57.9102,57.9102 93.7216,137.919 93.7216,226.278 0,88.3594 -35.8115,168.368 -93.7216,226.278 -57.9102,57.9102 -137.919,93.7216 -226.278,93.7216 -88.3594,0 -168.368,-35.8115 -226.278,-93.7216 -57.9102,-57.9102 -93.7216,-137.919 -93.7216,-226.278 0,-88.3594 35.8115,-168.368 93.7216,-226.278 57.9102,-57.9102 137.919,-93.7216 226.278,-93.7216zm51.7447 219.605c9.04736,-9.28358 8.83475,-24.1538 -0.448824,-33.1894 -9.29539,-9.03554 -24.1538,-8.82294 -33.1894,0.460636l-113.753 117.297 16.8309 16.3585 -16.9018 -16.3821c-9.04736,9.33082 -8.81113,24.2365 0.519691,33.2839 0.259846,0.259846 0.543314,0.519691 0.814971,0.755915l112.49 115.017c9.03554,9.29539 23.894,9.49618 33.1894,0.460636 9.28358,-9.03554 9.49618,-23.894 0.448824,-33.1894l-97.8083 -100.005 97.8083 -100.867zm141.25 -92.5996c-49.3943,-49.3943 -117.627,-79.938 -192.995,-79.938 -75.3671,0 -143.6,30.5437 -192.995,79.938 -49.3943,49.3943 -79.938,117.627 -79.938,192.995 0,75.3671 30.5437,143.6 79.938,192.995 49.3943,49.3943 117.627,79.938 192.995,79.938 75.3671,0 143.6,-30.5437 192.995,-79.938 49.3943,-49.3943 79.938,-117.627 79.938,-192.995 0,-75.3671 -30.5437,-143.6 -79.938,-192.995z"/>
 </g>
</svg>
